<?xml version="1.0" encoding="UTF-8" standalone="no"?>
<!DOCTYPE svg PUBLIC "-//W3C//DTD SVG 1.1//EN"
 "http://www.w3.org/Graphics/SVG/1.1/DTD/svg11.dtd">
<!-- Generated by graphviz version 2.38.0 (20140413.2041)
 -->
<!-- Title: models_diagram Pages: 1 -->
<svg width="517pt" height="316pt"
 viewBox="0.00 0.00 516.96 316.00" xmlns="http://www.w3.org/2000/svg" xmlns:xlink="http://www.w3.org/1999/xlink">
<g id="graph0" class="graph" transform="scale(1 1) rotate(0) translate(4 312)">
<title>models_diagram</title>
<polygon fill="white" stroke="none" points="-4,4 -4,-312 512.955,-312 512.955,4 -4,4"/>
<!-- _diagram_info -->
<g id="node1" class="node"><title>_diagram_info</title>
<text text-anchor="start" x="8" y="-279.6" font-family="Times,serif" font-size="13.00">Models diagram</text>
<text text-anchor="start" x="8" y="-266.6" font-family="Times,serif" font-size="13.00">Date: Feb 04 2015 &#45; 17:27</text>
<text text-anchor="start" x="8" y="-253.6" font-family="Times,serif" font-size="13.00">Migration version: 20150204211250</text>
<text text-anchor="start" x="8" y="-240.6" font-family="Times,serif" font-size="13.00">Generated by RailRoady 1.3.0</text>
<text text-anchor="start" x="8" y="-227.6" font-family="Times,serif" font-size="13.00">http://railroady.prestonlee.com</text>
</g>
<!-- Activity -->
<g id="node2" class="node"><title>Activity</title>
<path fill="none" stroke="black" d="M311.944,-0.5C311.944,-0.5 420.955,-0.5 420.955,-0.5 426.955,-0.5 432.955,-6.5 432.955,-12.5 432.955,-12.5 432.955,-158.5 432.955,-158.5 432.955,-164.5 426.955,-170.5 420.955,-170.5 420.955,-170.5 311.944,-170.5 311.944,-170.5 305.944,-170.5 299.944,-164.5 299.944,-158.5 299.944,-158.5 299.944,-12.5 299.944,-12.5 299.944,-6.5 305.944,-0.5 311.944,-0.5"/>
<text text-anchor="middle" x="366.45" y="-155.3" font-family="Times,serif" font-size="14.00">Activity</text>
<polyline fill="none" stroke="black" points="299.944,-148.5 432.955,-148.5 "/>
<text text-anchor="start" x="307.944" y="-133.3" font-family="Times,serif" font-size="14.00">id :integer</text>
<text text-anchor="start" x="307.944" y="-119.3" font-family="Times,serif" font-size="14.00">exercise_id :integer</text>
<text text-anchor="start" x="307.944" y="-105.3" font-family="Times,serif" font-size="14.00">intensity_id :integer</text>
<text text-anchor="start" x="307.944" y="-91.3" font-family="Times,serif" font-size="14.00">commute :boolean</text>
<text text-anchor="start" x="307.944" y="-77.3" font-family="Times,serif" font-size="14.00">duration :integer</text>
<text text-anchor="start" x="307.944" y="-63.3" font-family="Times,serif" font-size="14.00">distance :integer</text>
<text text-anchor="start" x="307.944" y="-49.3" font-family="Times,serif" font-size="14.00">date :datetime</text>
<text text-anchor="start" x="307.944" y="-35.3" font-family="Times,serif" font-size="14.00">description :text</text>
<text text-anchor="start" x="307.944" y="-21.3" font-family="Times,serif" font-size="14.00">created_at :datetime</text>
<text text-anchor="start" x="307.944" y="-7.3" font-family="Times,serif" font-size="14.00">updated_at :datetime</text>
</g>
<!-- Exercise -->
<g id="node3" class="node"><title>Exercise</title>
<path fill="none" stroke="black" d="M236.944,-207.5C236.944,-207.5 345.955,-207.5 345.955,-207.5 351.955,-207.5 357.955,-213.5 357.955,-219.5 357.955,-219.5 357.955,-295.5 357.955,-295.5 357.955,-301.5 351.955,-307.5 345.955,-307.5 345.955,-307.5 236.944,-307.5 236.944,-307.5 230.944,-307.5 224.944,-301.5 224.944,-295.5 224.944,-295.5 224.944,-219.5 224.944,-219.5 224.944,-213.5 230.944,-207.5 236.944,-207.5"/>
<text text-anchor="middle" x="291.45" y="-292.3" font-family="Times,serif" font-size="14.00">Exercise</text>
<polyline fill="none" stroke="black" points="224.944,-285.5 357.955,-285.5 "/>
<text text-anchor="start" x="232.944" y="-270.3" font-family="Times,serif" font-size="14.00">id :integer</text>
<text text-anchor="start" x="232.944" y="-256.3" font-family="Times,serif" font-size="14.00">name :string</text>
<text text-anchor="start" x="232.944" y="-242.3" font-family="Times,serif" font-size="14.00">description :text</text>
<text text-anchor="start" x="232.944" y="-228.3" font-family="Times,serif" font-size="14.00">created_at :datetime</text>
<text text-anchor="start" x="232.944" y="-214.3" font-family="Times,serif" font-size="14.00">updated_at :datetime</text>
</g>
<!-- Exercise&#45;&gt;Activity -->
<g id="edge1" class="edge"><title>Exercise&#45;&gt;Activity</title>
<path fill="none" stroke="#da8495" d="M316.404,-199.936C319.246,-193.495 322.197,-186.807 325.179,-180.046"/>
<ellipse fill="none" stroke="#da8495" cx="314.757" cy="-203.669" rx="4.00002" ry="4.00002"/>
<polygon fill="#da8495" stroke="#da8495" points="325.223,-179.947 333.377,-172.614 327.241,-175.372 329.26,-170.798 329.26,-170.798 329.26,-170.798 327.241,-175.372 325.142,-168.981 325.223,-179.947 325.223,-179.947"/>
</g>
<!-- Intensity -->
<g id="node4" class="node"><title>Intensity</title>
<path fill="none" stroke="black" d="M387.944,-207.5C387.944,-207.5 496.955,-207.5 496.955,-207.5 502.955,-207.5 508.955,-213.5 508.955,-219.5 508.955,-219.5 508.955,-295.5 508.955,-295.5 508.955,-301.5 502.955,-307.5 496.955,-307.5 496.955,-307.5 387.944,-307.5 387.944,-307.5 381.944,-307.5 375.944,-301.5 375.944,-295.5 375.944,-295.5 375.944,-219.5 375.944,-219.5 375.944,-213.5 381.944,-207.5 387.944,-207.5"/>
<text text-anchor="middle" x="442.45" y="-292.3" font-family="Times,serif" font-size="14.00">Intensity</text>
<polyline fill="none" stroke="black" points="375.944,-285.5 508.955,-285.5 "/>
<text text-anchor="start" x="383.944" y="-270.3" font-family="Times,serif" font-size="14.00">id :integer</text>
<text text-anchor="start" x="383.944" y="-256.3" font-family="Times,serif" font-size="14.00">name :string</text>
<text text-anchor="start" x="383.944" y="-242.3" font-family="Times,serif" font-size="14.00">description :text</text>
<text text-anchor="start" x="383.944" y="-228.3" font-family="Times,serif" font-size="14.00">created_at :datetime</text>
<text text-anchor="start" x="383.944" y="-214.3" font-family="Times,serif" font-size="14.00">updated_at :datetime</text>
</g>
<!-- Intensity&#45;&gt;Activity -->
<g id="edge2" class="edge"><title>Intensity&#45;&gt;Activity</title>
<path fill="none" stroke="#d10fd8" d="M417.162,-199.936C414.283,-193.495 411.293,-186.807 408.27,-180.046"/>
<ellipse fill="none" stroke="#d10fd8" cx="418.835" cy="-203.677" rx="4.00002" ry="4.00002"/>
<polygon fill="#d10fd8" stroke="#d10fd8" points="408.217,-179.927 408.244,-168.961 406.176,-175.362 404.136,-170.798 404.136,-170.798 404.136,-170.798 406.176,-175.362 400.028,-172.634 408.217,-179.927 408.217,-179.927"/>
</g>
</g>
</svg>
