<?xml version="1.0" encoding="UTF-8" standalone="no"?>
<!DOCTYPE svg PUBLIC "-//W3C//DTD SVG 1.1//EN"
 "http://www.w3.org/Graphics/SVG/1.1/DTD/svg11.dtd">
<!-- Generated by graphviz version 2.38.0 (20140413.2041)
 -->
<!-- Title: models_diagram Pages: 1 -->
<svg width="415pt" height="153pt"
 viewBox="0.00 0.00 414.50 153.00" xmlns="http://www.w3.org/2000/svg" xmlns:xlink="http://www.w3.org/1999/xlink">
<g id="graph0" class="graph" transform="scale(1 1) rotate(0) translate(4 149)">
<title>models_diagram</title>
<polygon fill="white" stroke="none" points="-4,4 -4,-149 410.504,-149 410.504,4 -4,4"/>
<!-- _diagram_info -->
<g id="node1" class="node"><title>_diagram_info</title>
<text text-anchor="start" x="8" y="-130.6" font-family="Times,serif" font-size="13.00">Models diagram</text>
<text text-anchor="start" x="8" y="-117.6" font-family="Times,serif" font-size="13.00">Date: Feb 04 2015 &#45; 17:27</text>
<text text-anchor="start" x="8" y="-104.6" font-family="Times,serif" font-size="13.00">Migration version: 20150204211250</text>
<text text-anchor="start" x="8" y="-91.6" font-family="Times,serif" font-size="13.00">Generated by RailRoady 1.3.0</text>
<text text-anchor="start" x="8" y="-78.6" font-family="Times,serif" font-size="13.00">http://railroady.prestonlee.com</text>
</g>
<!-- Activity -->
<g id="node2" class="node"><title>Activity</title>
<ellipse fill="none" stroke="black" cx="315.45" cy="-18" rx="39.18" ry="18"/>
<text text-anchor="middle" x="315.45" y="-13.8" font-family="Times,serif" font-size="14.00">Activity</text>
</g>
<!-- Exercise -->
<g id="node3" class="node"><title>Exercise</title>
<ellipse fill="none" stroke="black" cx="265.45" cy="-108.5" rx="40.5989" ry="18"/>
<text text-anchor="middle" x="265.45" y="-104.3" font-family="Times,serif" font-size="14.00">Exercise</text>
</g>
<!-- Exercise&#45;&gt;Activity -->
<g id="edge1" class="edge"><title>Exercise&#45;&gt;Activity</title>
<path fill="none" stroke="#643c07" d="M278.864,-83.7573C285.718,-71.6246 294.065,-56.8509 301.054,-44.4799"/>
<ellipse fill="none" stroke="#643c07" cx="276.822" cy="-87.3712" rx="4.00002" ry="4.00002"/>
<polygon fill="#643c07" stroke="#643c07" points="301.168,-44.2781 310.005,-37.7851 303.628,-39.9248 306.087,-35.5715 306.087,-35.5715 306.087,-35.5715 303.628,-39.9248 302.169,-33.358 301.168,-44.2781 301.168,-44.2781"/>
</g>
<!-- Intensity -->
<g id="node4" class="node"><title>Intensity</title>
<ellipse fill="none" stroke="black" cx="365.45" cy="-108.5" rx="41.1093" ry="18"/>
<text text-anchor="middle" x="365.45" y="-104.3" font-family="Times,serif" font-size="14.00">Intensity</text>
</g>
<!-- Intensity&#45;&gt;Activity -->
<g id="edge2" class="edge"><title>Intensity&#45;&gt;Activity</title>
<path fill="none" stroke="#8da000" d="M352.036,-83.7573C345.181,-71.6246 336.834,-56.8509 329.845,-44.4799"/>
<ellipse fill="none" stroke="#8da000" cx="354.077" cy="-87.3712" rx="4.00002" ry="4.00002"/>
<polygon fill="#8da000" stroke="#8da000" points="329.731,-44.2781 328.73,-33.358 327.272,-39.9248 324.812,-35.5715 324.812,-35.5715 324.812,-35.5715 327.272,-39.9248 320.894,-37.7851 329.731,-44.2781 329.731,-44.2781"/>
</g>
</g>
</svg>
